<?xml version="1.0" standalone="no"?>
<!DOCTYPE svg PUBLIC "-//W3C//DTD SVG 1.1//EN" "http://www.w3.org/Graphics/SVG/1.1/DTD/svg11.dtd">
<svg viewBox="0 0 1024 1024" version="1.1" xmlns="http://www.w3.org/2000/svg" xmlns:xlink="http://www.w3.org/1999/xlink" width="1024" height="1024">
  <path d="M364.16 320h295.36a36.16 36.16 0 0 0 36.8-35.2V208.64A180.8 180.8 0 0 0 512 32a180.8 180.8 0 0 0-184.64 176.64v75.2A36.16 36.16 0 0 0 364.16 320zM512 128a64 64 0 1 1-64 64 64 64 0 0 1 64-64z m296.96 32h-52.48a248.32 248.32 0 0 1 4.16 43.84v78.4A101.12 101.12 0 0 1 659.84 384h-295.68a101.12 101.12 0 0 1-100.8-101.76V203.84A248.32 248.32 0 0 1 267.52 160H215.04A119.36 119.36 0 0 0 96 279.04v593.92A119.36 119.36 0 0 0 215.04 992h593.92A119.36 119.36 0 0 0 928 872.96V279.04A119.36 119.36 0 0 0 808.96 160z m-70.72 361.6l-169.6 271.04-2.24 3.52a67.84 67.84 0 0 1-93.44 21.44 68.8 68.8 0 0 1-18.24-16.64l-109.76-145.28A50.56 50.56 0 0 1 416 584.64l81.28 61.44 160-184.32a50.24 50.24 0 0 1 80.64 59.84z" fill="#231F20"/>
</svg>
