<?xml version="1.0" standalone="no"?>
<!DOCTYPE svg PUBLIC "-//W3C//DTD SVG 1.1//EN" "http://www.w3.org/Graphics/SVG/1.1/DTD/svg11.dtd">
<svg viewBox="0 0 1024 1024" version="1.1" xmlns="http://www.w3.org/2000/svg" xmlns:xlink="http://www.w3.org/1999/xlink" width="200" height="200">
  <path d="M576 652.8H313.6c-12.8 0-19.2-6.4-25.6-19.2v-6.4-230.4c0-12.8 6.4-19.2 25.6-19.2H576v-6.4-204.8c0-6.4 0-12.8 12.8-19.2 6.4-6.4 19.2 0 25.6 6.4l12.8 12.8 147.2 147.2 185.6 185.6c12.8 12.8 12.8 19.2 0 32L691.2 800l-76.8 76.8c-6.4 6.4-12.8 6.4-25.6 6.4-12.8-12.8-12.8-19.2-12.8-25.6v-198.4-6.4z" fill="currentColor"/>
  <path d="M416 153.6v76.8H217.6c-44.8 0-76.8 25.6-76.8 70.4v428.8c0 38.4 25.6 64 57.6 70.4H416v76.8H211.2c-64 0-128-51.2-140.8-115.2V736 300.8C64 236.8 96 192 147.2 166.4c19.2-12.8 38.4-12.8 57.6-12.8H416c-6.4 0 0 0 0 0z" fill="currentColor"/>
</svg>
