<?xml version="1.0" standalone="no"?>
<!DOCTYPE svg PUBLIC "-//W3C//DTD SVG 1.1//EN" "http://www.w3.org/Graphics/SVG/1.1/DTD/svg11.dtd">
<svg viewBox="0 0 1024 1024" version="1.1" xmlns="http://www.w3.org/2000/svg" xmlns:xlink="http://www.w3.org/1999/xlink" width="200" height="200">
  <path d="M750.0288 121.8048H275.3024c-82.8928 0-150.3232 67.4304-150.3232 150.3232V752.64c0 82.8928 67.4304 150.3232 150.3232 150.3232h474.7264c82.8928 0 150.3232-67.4304 150.3232-150.3232V272.128c0-82.8928-67.4304-150.3232-150.3232-150.3232z m-17.5616 611.3792a30.35648 30.35648 0 0 1-42.9056-0.256l-79.5648-80.64a189.696 189.696 0 0 1-111.5136 36.0448c-105.3696 0-191.0784-85.7088-191.0784-191.0784S393.1136 306.176 498.4832 306.176s191.0784 85.7088 191.0784 191.0784c0 41.9328-13.6192 80.6912-36.5568 112.2304l79.7696 80.7936a30.37696 30.37696 0 0 1-0.3072 42.9056zM498.4832 379.6992c-64.8192 0-117.5552 52.736-117.5552 117.5552s52.736 117.5552 117.5552 117.5552 117.5552-52.736 117.5552-117.5552-52.736-117.5552-117.5552-117.5552z" fill="currentColor"/>
</svg>
